<svg id="Layer_1" data-name="Layer 1" xmlns="http://www.w3.org/2000/svg" viewBox="0 0 2069.63 497.92"><defs><style>.cls-1{fill:#e3caaf;}.cls-1,.cls-2{stroke:#a67c52;stroke-miterlimit:10;stroke-width:25px;}.cls-2{fill:none;}.cls-3{fill:#ed4047;}.cls-4{fill:#a6ff57;}.cls-5{fill:#6eedff;}.cls-6{fill:#f8ff6a;}.cls-7{fill:#c9aaff;}.cls-10,.cls-8{fill:#fff;}.cls-9{fill:#ffa75f;}.cls-10{opacity:0.48;}</style></defs><rect class="cls-1" x="12.5" y="12.5" width="2044.63" height="472.04" rx="12"/><line class="cls-2" x1="111.5" y1="485.42" x2="1066.45" y2="485.42"/><rect class="cls-3" x="156.45" y="98.77" width="160.32" height="374.56"/><rect class="cls-4" x="327.19" y="156.61" width="128.54" height="316.39"/><rect class="cls-5" x="528.46" y="109.68" width="128.54" height="373.78" transform="translate(-1.87 -91.38) rotate(7.46)"/><rect class="cls-6" x="622.17" y="195.39" width="145.49" height="277.62"/><rect class="cls-7" x="757.24" y="170.57" width="148.32" height="302.44"/><path class="cls-8" d="M330.79,302.87v25.79H321a39.48,39.48,0,0,0-6-12.89,21.06,21.06,0,0,0-8.49-6.85,30,30,0,0,0-11.66-2.05,28.18,28.18,0,0,0-18.12,6.38q-8,6.39-12.49,19.19t-4.55,31q0,18.25,3.76,31.15T274.5,414a25.89,25.89,0,0,0,18,6.57q8.1,0,13.24-2.19a20.74,20.74,0,0,0,8.64-6.94q3.51-4.76,6.67-14h9.77v26.64a153.59,153.59,0,0,1-19,3.49,182,182,0,0,1-21.38,1.16q-25.09,0-37.93-16T239.63,365q0-19.92,6.67-34.92a51.42,51.42,0,0,1,19.6-23.19q12.94-8.19,30.92-8.19a144.11,144.11,0,0,1,16.59.88A141.91,141.91,0,0,1,330.79,302.87Z" transform="translate(-45.37 -16.96)"/><rect class="cls-9" x="966.56" y="261.61" width="97.71" height="222.78" transform="translate(-84.88 116.62) rotate(-7.38)"/><path class="cls-8" d="M448.13,405.17c0,5.11.31,8.67.93,10.66a7.8,7.8,0,0,0,3.55,4.55,28.2,28.2,0,0,0,8.55,2.72v4.37H415V423.1a31.34,31.34,0,0,0,8.09-2.41,8.09,8.09,0,0,0,3.26-3,13.43,13.43,0,0,0,1.39-4.73,60.2,60.2,0,0,0,.41-7.8V330.51q0-8.56-.18-12a22.35,22.35,0,0,0-.93-5.75,9,9,0,0,0-2.09-3.7,9.34,9.34,0,0,0-3.61-2.14,47.12,47.12,0,0,0-8.2-1.61v-4.64l28-.89h7Z" transform="translate(-45.37 -16.96)"/><path class="cls-8" d="M595.44,414.14l-1.27-.72q-10,6.75-17.9,8.65a32.58,32.58,0,0,1-15.67,0,25.71,25.71,0,0,1-11.48-5.88,20.32,20.32,0,0,1-6.1-10.1,25.82,25.82,0,0,1,.15-12.76q3.5-14.25,18.56-18.79t41.65.66l1.56-6.35q2.5-10.17,2.12-16.47t-3.62-10q-3.24-3.69-9.78-5.3-7.1-1.76-12.4,1.19t-9.46,10.42l-11.92-2.93L563,333a131.28,131.28,0,0,1,16.32-3.6,81.08,81.08,0,0,1,12.53-.75A54.27,54.27,0,0,1,604,330.27q9,2.21,13.71,6.63a19.66,19.66,0,0,1,5.87,11.44q1.17,7-2,19.82l-8.36,34q-1.77,7.23-2.42,10.23A38.54,38.54,0,0,0,610,418a12.43,12.43,0,0,0,.37,4.39,7.92,7.92,0,0,0,2,3.25,27,27,0,0,0,5.22,3.66l-1.18,4.79L591.55,428Zm6-30.95q-18.51-4.35-28.95-1.53t-13,13.08c-.91,3.71-.93,6.82-.07,9.31a11.25,11.25,0,0,0,4.19,5.74,21.69,21.69,0,0,0,7.25,3.08,21.07,21.07,0,0,0,12-.46,24,24,0,0,0,9.89-6.28A20.52,20.52,0,0,0,598,397Z" transform="translate(-45.37 -16.96)"/><path class="cls-8" d="M769.94,387.6h-8.69a27.5,27.5,0,0,0-4.71-8.56,15.09,15.09,0,0,0-6.15-4.39,24.65,24.65,0,0,0-8.42-1.26q-7.25,0-11.54,3.39a11.17,11.17,0,0,0-4.3,9.28,12.63,12.63,0,0,0,1.72,6.88,17.22,17.22,0,0,0,5.34,5.07A92.39,92.39,0,0,0,746,404.25a94.13,94.13,0,0,1,14.26,7.33,27.06,27.06,0,0,1,7.87,7.79A19.13,19.13,0,0,1,770.93,430a26.69,26.69,0,0,1-2.44,12,21,21,0,0,1-6.88,8,29.45,29.45,0,0,1-10.55,4.43,61.2,61.2,0,0,1-13.35,1.36A94.87,94.87,0,0,1,723,454.62,135.5,135.5,0,0,1,709,451.68V432.76h8.87q2.45,8.33,7.24,12.08t13.22,3.76a30.11,30.11,0,0,0,6.38-.68,16.39,16.39,0,0,0,5.56-2.26,11.5,11.5,0,0,0,3.9-4.3,14.37,14.37,0,0,0,1.44-6.79,13.94,13.94,0,0,0-1.81-7.51,17.24,17.24,0,0,0-5.61-5.3,107,107,0,0,0-13.39-6.47,83.16,83.16,0,0,1-13.22-6.69,26.29,26.29,0,0,1-7.83-7.7,19,19,0,0,1-2.85-10.5,21.14,21.14,0,0,1,4-12.89,25.11,25.11,0,0,1,11.63-8.38,50,50,0,0,1,17.83-2.89,107.74,107.74,0,0,1,11.54.59q5.56.59,14,2.3Z" transform="translate(-45.37 -16.96)"/><path class="cls-8" d="M907.19,373.26H898.5a27.32,27.32,0,0,0-4.71-8.55,15.09,15.09,0,0,0-6.15-4.39,24.59,24.59,0,0,0-8.42-1.27q-7.25,0-11.54,3.4a11.18,11.18,0,0,0-4.3,9.27,12.69,12.69,0,0,0,1.72,6.88,17.45,17.45,0,0,0,5.34,5.07,93.6,93.6,0,0,0,12.77,6.25,93,93,0,0,1,14.25,7.33,26.91,26.91,0,0,1,7.87,7.78,19.1,19.1,0,0,1,2.86,10.59,26.74,26.74,0,0,1-2.45,12,20.86,20.86,0,0,1-6.88,8,29.41,29.41,0,0,1-10.54,4.44A61.89,61.89,0,0,1,875,441.42a93.47,93.47,0,0,1-14.75-1.14,134.94,134.94,0,0,1-13.94-2.94V418.43h8.87q2.45,8.32,7.24,12.08t13.21,3.76a30.11,30.11,0,0,0,6.38-.68,16.75,16.75,0,0,0,5.57-2.27,11.37,11.37,0,0,0,3.89-4.29,14.28,14.28,0,0,0,1.45-6.79,14,14,0,0,0-1.81-7.52,17.43,17.43,0,0,0-5.61-5.29,104.55,104.55,0,0,0-13.4-6.47,82.94,82.94,0,0,1-13.21-6.7,26.14,26.14,0,0,1-7.83-7.69,19,19,0,0,1-2.85-10.5,21.14,21.14,0,0,1,4-12.9,25,25,0,0,1,11.63-8.37,50,50,0,0,1,17.83-2.9,110.41,110.41,0,0,1,11.54.59q5.56.58,14,2.31Z" transform="translate(-45.37 -16.96)"/><path class="cls-8" d="M1034.25,441a84.33,84.33,0,0,1-4,13.9,24.94,24.94,0,0,1-5.62,8.71,17.38,17.38,0,0,1-8.74,4.36,43,43,0,0,1-7.89.8l-2.58-12.33,5.55-1.15a7.83,7.83,0,0,0,2.6,3.16,4.91,4.91,0,0,0,3.45.32,7.59,7.59,0,0,0,3.18-1.41,10.92,10.92,0,0,0,2.54-3.1,34.84,34.84,0,0,0,2.62-6.13q1.39-4.07,2.92-10.16L1001,394.74a48.42,48.42,0,0,0-4-5.79,9.57,9.57,0,0,0-2.78-2.28,9.68,9.68,0,0,0-3.93-.74l-.63-3.05L1015,377.6l.64,3a17.91,17.91,0,0,0-3.83,2.19,4.4,4.4,0,0,0-1.4,2.05,5.57,5.57,0,0,0,0,2.76,16,16,0,0,0,1.13,3.4,36.77,36.77,0,0,0,2.16,4l17.59,28.89,6.22-32.49a41.15,41.15,0,0,0,.7-4.92,14.89,14.89,0,0,0-.22-4,5.45,5.45,0,0,0-2.31-3.74,11.37,11.37,0,0,0-5.53-1.12l-.64-3.05,23.29-4.86.64,3.05a9.11,9.11,0,0,0-3.42,2.31,12,12,0,0,0-1.94,3.78,70.39,70.39,0,0,0-1.82,6.85Z" transform="translate(-45.37 -16.96)"/><rect class="cls-10" x="178.59" y="119.98" width="114.65" height="70.35"/><rect class="cls-10" x="349.26" y="164.28" width="78.17" height="70.35"/><rect class="cls-10" x="569.45" y="118.94" width="79.28" height="88.94" transform="translate(-19.02 -94.62) rotate(7.46)"/><rect class="cls-10" x="646.3" y="214.07" width="88.41" height="88.94"/><rect class="cls-10" x="781.79" y="194.53" width="98.83" height="88.94"/><rect class="cls-10" x="981.18" y="274.39" width="54.07" height="88.94" transform="matrix(0.99, -0.13, 0.13, 0.99, -77.98, 115.24)"/><rect class="cls-7" x="1126.02" y="88.35" width="180.35" height="383.25"/><rect class="cls-9" x="1306.37" y="198.18" width="127.75" height="273.54"/><rect class="cls-3" x="1522.72" y="201.45" width="127.75" height="273.54" transform="translate(-64.17 554.44) rotate(-20.3)"/><rect class="cls-4" x="1648.29" y="120.06" width="120.24" height="351.69"/><rect class="cls-5" x="1780.55" y="246.36" width="123.24" height="225.38"/><path class="cls-8" d="M1216.06,421.34v-4.41q5.58-1.44,7.48-3.2a8.7,8.7,0,0,0,2.47-5,60.75,60.75,0,0,0,.59-9.9V320.92a64.34,64.34,0,0,0-.45-9.05,11.3,11.3,0,0,0-1.49-4.41,7.67,7.67,0,0,0-2.75-2.52,30.36,30.36,0,0,0-5.85-2.12v-4.41h49.26q14.33,0,23,3.06t12.93,9q4.23,6,4.23,15.45a28.14,28.14,0,0,1-10.9,23.14,55.81,55.81,0,0,1-12.52,7V357q12.26,3.69,18.56,11.39a28,28,0,0,1,6.3,18.33q0,12.24-5.45,20a30.47,30.47,0,0,1-15.26,11.21q-9.83,3.48-23.78,3.47Zm43.14-67.81q13.68,0,20.94-6.62t7.25-19.23a23.2,23.2,0,0,0-2-10.31,16.71,16.71,0,0,0-5.58-6.53,23.4,23.4,0,0,0-8.42-3.47,50.7,50.7,0,0,0-10.54-1c-2.28,0-5.28.07-9,.18s-6.51.25-8.37.36v46.66Zm-15.76,59.25q6.57.64,14.68.64,11.79,0,18.33-3a18.89,18.89,0,0,0,9.45-8.78q2.92-5.81,2.93-14.54t-3.2-14.41a19.6,19.6,0,0,0-9.86-8.47q-6.66-2.79-18.37-2.79h-14Z" transform="translate(-45.37 -16.96)"/><path class="cls-8" d="M1414.8,405.24q-18.78,0-28.65-11.14t-9.88-33q0-15,5.19-25.37a34.84,34.84,0,0,1,14.21-15.42,41.34,41.34,0,0,1,20.57-5.05q19.3,0,29.23,11.32t9.93,32.52q0,15.11-5,25.47a34.1,34.1,0,0,1-14.07,15.51Q1427.24,405.24,1414.8,405.24Zm-21.48-46q0,18.75,5.91,28.79t16.92,10.05a17.5,17.5,0,0,0,10.28-2.95,22.29,22.29,0,0,0,6.91-8,39.26,39.26,0,0,0,3.83-11.6,78.73,78.73,0,0,0,1.17-13.78q0-13.36-2.93-22.19t-8-13a17.77,17.77,0,0,0-11.55-4.13q-10.92,0-16.74,9.55T1393.32,359.21Z" transform="translate(-45.37 -16.96)"/><path class="cls-8" d="M1607.36,397.29q-17.68,6.56-31.64-2.52t-23.08-33.64q-6.27-16.89-5.71-30.37t7-22.31a36.41,36.41,0,0,1,17.27-12.88q18.19-6.75,32.27,2.52t22.93,33.12q6.3,17,6,30.39T1625.53,384Q1619.08,392.94,1607.36,397.29ZM1567.91,353q7.83,21.08,17.59,30.32t20.13,5.39a15.6,15.6,0,0,0,8.46-6.92,25.89,25.89,0,0,0,3.18-11.37,53.93,53.93,0,0,0-1.24-14.39,109.75,109.75,0,0,0-4.65-15.91q-5.58-15-12-23.95t-12.93-11.79a16.2,16.2,0,0,0-12.61-.62q-10.29,3.83-11.78,16.6T1567.91,353Z" transform="translate(-45.37 -16.96)"/><path class="cls-8" d="M1741.7,378h2.45a12.05,12.05,0,0,0,4.15-.59,17.43,17.43,0,0,0,4.23-2.55,75.82,75.82,0,0,0,6.53-6.06,55.14,55.14,0,0,0,5.34-6.1,17.52,17.52,0,0,0,2.5-4.6,10.66,10.66,0,0,0,.62-3.52,5.31,5.31,0,0,0-1.43-3.93,8.18,8.18,0,0,0-4.64-1.92v-4.1h33.12v4.1a21.83,21.83,0,0,0-7.53,3.43,51.64,51.64,0,0,0-8.23,7l-17.67,18.23,22.13,31.45a43,43,0,0,0,7,8.16,15.93,15.93,0,0,0,6.8,3.47v4.1h-29.51v-4.1a6.5,6.5,0,0,0,3-1,2.81,2.81,0,0,0,1-2.39,7.55,7.55,0,0,0-.43-2.47,18.52,18.52,0,0,0-1.73-3.3q-1.3-2.08-4.76-7.28l-9.15-13.38a49.18,49.18,0,0,0-3.72-4.93,6.86,6.86,0,0,0-2.35-1.67,8.79,8.79,0,0,0-3.3-.51h-4.3V403.7a54.32,54.32,0,0,0,.61,10,7.51,7.51,0,0,0,2.34,4.27,15.53,15.53,0,0,0,5.65,2.55v4.1h-30.51v-4.1a16.59,16.59,0,0,0,5.34-2.26,6.77,6.77,0,0,0,2.16-2.8,16.84,16.84,0,0,0,.92-4.44q.27-2.79.27-7.31v-70q0-8-.12-11.2a30.58,30.58,0,0,0-.61-5.4,9.9,9.9,0,0,0-1.39-3.47,6.35,6.35,0,0,0-2.38-2,23.43,23.43,0,0,0-5.42-1.5v-4.35l18.52-.84h4.62Z" transform="translate(-45.37 -16.96)"/><path class="cls-8" d="M1913,362.74h-8.41a22.14,22.14,0,0,0-4.56-7.13,14.61,14.61,0,0,0-6-3.66,27,27,0,0,0-8.15-1.06q-7,0-11.17,2.83a8.9,8.9,0,0,0-4.16,7.74,9.42,9.42,0,0,0,1.66,5.73,16.08,16.08,0,0,0,5.17,4.23,97.56,97.56,0,0,0,12.36,5.21,95.69,95.69,0,0,1,13.8,6.11,24.53,24.53,0,0,1,7.62,6.49,14.36,14.36,0,0,1,2.76,8.83,19.68,19.68,0,0,1-2.36,10,18.59,18.59,0,0,1-6.66,6.64,31.34,31.34,0,0,1-10.21,3.7,69.21,69.21,0,0,1-12.92,1.13,107.3,107.3,0,0,1-14.29-.94q-6.91-.94-13.49-2.46V400.4h8.59q2.35,6.94,7,10.08t12.79,3.13a33.36,33.36,0,0,0,6.18-.57,17.54,17.54,0,0,0,5.39-1.89,10.18,10.18,0,0,0,3.76-3.58,12.06,12.06,0,0,0-.35-11.93,16.11,16.11,0,0,0-5.43-4.41,110.81,110.81,0,0,0-13-5.4,85.48,85.48,0,0,1-12.79-5.58,23.78,23.78,0,0,1-7.58-6.42,14.2,14.2,0,0,1-2.76-8.75,16.05,16.05,0,0,1,3.9-10.76q3.9-4.56,11.26-7a55.46,55.46,0,0,1,17.26-2.41q5.79,0,11.17.49t13.54,1.92Z" transform="translate(-45.37 -16.96)"/><rect class="cls-10" x="1149.47" y="109.48" width="125.07" height="80.77"/><rect class="cls-10" x="1320.13" y="215" width="102.92" height="62.53"/><rect class="cls-10" x="1506.01" y="218.79" width="101.9" height="63.32" transform="translate(-35.56 538.7) rotate(-20.3)"/><rect class="cls-10" x="1661.47" y="148.56" width="93.8" height="61.23"/><rect class="cls-10" x="1802.17" y="255.39" width="80.77" height="59.93"/></svg>