<svg id="Layer_1" data-name="Layer 1" xmlns="http://www.w3.org/2000/svg" viewBox="0 0 969.53 969.53"><defs><style>.cls-1{fill:#e3caaf;}.cls-1,.cls-2{stroke:#a67c52;stroke-miterlimit:10;stroke-width:25px;}.cls-2{fill:none;}.cls-3{fill:#ed4047;}.cls-4{fill:#a6ff57;}.cls-5{fill:#6eedff;}.cls-6{fill:#f8ff6a;}.cls-7{fill:#c9aaff;}.cls-10,.cls-8{fill:#fff;}.cls-9{fill:#ffa75f;}.cls-10{opacity:0.48;}</style></defs><rect class="cls-1" x="12.5" y="12.5" width="944.53" height="944.53" rx="12"/><line class="cls-2" x1="12.5" y1="485.42" x2="967.45" y2="485.42"/><rect class="cls-3" x="57.45" y="98.77" width="160.32" height="374.56"/><rect class="cls-4" x="228.19" y="156.61" width="128.54" height="316.39"/><rect class="cls-5" x="442.64" y="148.68" width="128.54" height="373.78" transform="matrix(0.99, 0.13, -0.13, 0.99, -10.71, -118.91)"/><rect class="cls-6" x="523.17" y="195.39" width="145.49" height="277.62"/><rect class="cls-7" x="658.24" y="170.57" width="148.32" height="302.44"/><path class="cls-8" d="M245,341.87v25.8h-9.78a39.75,39.75,0,0,0-6-12.9,21,21,0,0,0-8.5-6.84A29.72,29.72,0,0,0,209,345.88a28.16,28.16,0,0,0-18.12,6.38q-8,6.38-12.5,19.18t-4.54,31q0,18.25,3.75,31.15T188.67,453a26,26,0,0,0,18,6.56q8.1,0,13.23-2.19a20.69,20.69,0,0,0,8.65-6.93q3.5-4.75,6.66-14H245v26.63a152.09,152.09,0,0,1-19,3.49,180,180,0,0,1-21.39,1.17q-25.08,0-37.92-16T153.81,404q0-19.94,6.67-34.92a51.26,51.26,0,0,1,19.6-23.19q12.94-8.19,30.91-8.2a144.06,144.06,0,0,1,16.6.89A142.06,142.06,0,0,1,245,341.87Z" transform="translate(-58.55 -55.97)"/><rect class="cls-9" x="880.74" y="300.61" width="97.71" height="222.78" transform="translate(-103.78 66.91) rotate(-7.38)"/><path class="cls-8" d="M362.31,444.17c0,5.12.3,8.67.93,10.66a7.79,7.79,0,0,0,3.54,4.55,28.38,28.38,0,0,0,8.56,2.72v4.37H329.15V462.1a30.71,30.71,0,0,0,8.08-2.41,8,8,0,0,0,3.26-3,13.49,13.49,0,0,0,1.4-4.73,60.64,60.64,0,0,0,.4-7.81V369.51q0-8.56-.17-11.95a23.42,23.42,0,0,0-.93-5.76,9,9,0,0,0-2.1-3.7,9.54,9.54,0,0,0-3.6-2.14,48.33,48.33,0,0,0-8.2-1.61v-4.63l28-.9h7Z" transform="translate(-58.55 -55.97)"/><path class="cls-8" d="M509.61,453.15l-1.26-.73q-10.05,6.75-17.9,8.65a32.45,32.45,0,0,1-15.67,0,25.75,25.75,0,0,1-11.48-5.87,20.34,20.34,0,0,1-6.1-10.1,25.69,25.69,0,0,1,.14-12.76q3.51-14.26,18.56-18.8t41.66.66l1.56-6.35q2.49-10.15,2.12-16.47t-3.62-10c-2.16-2.47-5.42-4.23-9.79-5.31q-7.09-1.74-12.4,1.2T486,387.67l-11.91-2.93,3.12-12.7a127.35,127.35,0,0,1,16.32-3.6,82.29,82.29,0,0,1,12.53-.76,55.45,55.45,0,0,1,12.15,1.59q9,2.22,13.71,6.64a19.56,19.56,0,0,1,5.86,11.44q1.17,7-2,19.81l-8.36,34q-1.78,7.23-2.42,10.23a38.23,38.23,0,0,0-.81,5.65,12.2,12.2,0,0,0,.37,4.39,7.89,7.89,0,0,0,2,3.25,26.93,26.93,0,0,0,5.23,3.67l-1.18,4.78L505.73,467Zm6-31q-18.53-4.33-29-1.52t-13,13.08c-.91,3.71-.94,6.81-.07,9.3a11.27,11.27,0,0,0,4.18,5.75,21.68,21.68,0,0,0,7.25,3.07,21,21,0,0,0,12-.46,23.85,23.85,0,0,0,9.88-6.27A20.51,20.51,0,0,0,512.2,436Z" transform="translate(-58.55 -55.97)"/><path class="cls-8" d="M684.11,426.6h-8.69a27.32,27.32,0,0,0-4.7-8.55,15.12,15.12,0,0,0-6.16-4.39,24.59,24.59,0,0,0-8.42-1.27q-7.23,0-11.54,3.4a11.18,11.18,0,0,0-4.3,9.27,12.69,12.69,0,0,0,1.72,6.88,17.45,17.45,0,0,0,5.34,5.07,93.6,93.6,0,0,0,12.77,6.25,93,93,0,0,1,14.25,7.33,27,27,0,0,1,7.88,7.78A19.18,19.18,0,0,1,685.11,469a26.74,26.74,0,0,1-2.45,12,20.86,20.86,0,0,1-6.88,8,29.41,29.41,0,0,1-10.54,4.44,61.83,61.83,0,0,1-13.35,1.36,93.47,93.47,0,0,1-14.75-1.14,134.94,134.94,0,0,1-13.94-2.94V471.77h8.87q2.45,8.33,7.24,12.08t13.21,3.76a30,30,0,0,0,6.38-.68,16.66,16.66,0,0,0,5.57-2.27,11.29,11.29,0,0,0,3.89-4.29,14.31,14.31,0,0,0,1.45-6.79,14,14,0,0,0-1.81-7.52,17.43,17.43,0,0,0-5.61-5.29A104.55,104.55,0,0,0,649,454.3a82.94,82.94,0,0,1-13.21-6.7,26.14,26.14,0,0,1-7.83-7.69,19,19,0,0,1-2.85-10.5,21.14,21.14,0,0,1,4-12.9,25,25,0,0,1,11.63-8.37,50,50,0,0,1,17.83-2.9,110.41,110.41,0,0,1,11.54.59q5.57.59,14,2.31Z" transform="translate(-58.55 -55.97)"/><path class="cls-8" d="M821.37,412.27h-8.69a27.5,27.5,0,0,0-4.71-8.56,15,15,0,0,0-6.15-4.38,24.39,24.39,0,0,0-8.42-1.27q-7.24,0-11.54,3.39a11.17,11.17,0,0,0-4.3,9.28,12.6,12.6,0,0,0,1.72,6.88,17.33,17.33,0,0,0,5.34,5.07,92.39,92.39,0,0,0,12.76,6.24,93.65,93.65,0,0,1,14.26,7.33,26.94,26.94,0,0,1,7.87,7.79,19.13,19.13,0,0,1,2.85,10.59,26.69,26.69,0,0,1-2.44,12,20.89,20.89,0,0,1-6.88,8,29.45,29.45,0,0,1-10.55,4.43,61.2,61.2,0,0,1-13.35,1.36,94.87,94.87,0,0,1-14.75-1.13,135.5,135.5,0,0,1-13.94-2.94V457.43h8.87q2.45,8.32,7.24,12.09t13.22,3.75a30.11,30.11,0,0,0,6.38-.68,16.53,16.53,0,0,0,5.57-2.26,11.56,11.56,0,0,0,3.89-4.3,14.37,14.37,0,0,0,1.45-6.79,14.06,14.06,0,0,0-1.81-7.51,17.26,17.26,0,0,0-5.62-5.29A105.31,105.31,0,0,0,786.25,440,83.16,83.16,0,0,1,773,433.27a26.13,26.13,0,0,1-7.82-7.7,18.89,18.89,0,0,1-2.86-10.5,21.2,21.2,0,0,1,4-12.89A25.11,25.11,0,0,1,778,393.8a50,50,0,0,1,17.83-2.89,107.74,107.74,0,0,1,11.54.59q5.57.58,14,2.3Z" transform="translate(-58.55 -55.97)"/><path class="cls-8" d="M948.43,480a84.48,84.48,0,0,1-4,13.91,25,25,0,0,1-5.63,8.71A17.5,17.5,0,0,1,930,507a43.73,43.73,0,0,1-7.89.8l-2.57-12.33,5.54-1.16a7.77,7.77,0,0,0,2.61,3.16,4.8,4.8,0,0,0,3.45.32,7.7,7.7,0,0,0,3.18-1.41,11,11,0,0,0,2.54-3.09,35.78,35.78,0,0,0,2.62-6.14q1.39-4.07,2.91-10.16l-27.21-43.26a50.19,50.19,0,0,0-4-5.78,9.6,9.6,0,0,0-2.79-2.28,9.31,9.31,0,0,0-3.92-.74l-.64-3.05,25.35-5.29.63,3a18.56,18.56,0,0,0-3.83,2.2,4.4,4.4,0,0,0-1.39,2,5.72,5.72,0,0,0,0,2.77,16.74,16.74,0,0,0,1.13,3.4,36.77,36.77,0,0,0,2.16,4l17.6,28.89,6.22-32.49a39,39,0,0,0,.69-4.92,14.45,14.45,0,0,0-.22-4,5.36,5.36,0,0,0-2.31-3.74,11.23,11.23,0,0,0-5.53-1.12l-.63-3.06L967,408.72l.63,3a9.26,9.26,0,0,0-3.41,2.3,11.77,11.77,0,0,0-1.94,3.79,66.89,66.89,0,0,0-1.83,6.84Z" transform="translate(-58.55 -55.97)"/><rect class="cls-10" x="79.59" y="119.98" width="114.65" height="70.35"/><rect class="cls-10" x="250.26" y="164.28" width="78.17" height="70.35"/><rect class="cls-10" x="483.63" y="157.94" width="79.28" height="88.94" transform="translate(-27.86 -122.16) rotate(7.46)"/><rect class="cls-10" x="547.3" y="214.07" width="88.41" height="88.94"/><rect class="cls-10" x="682.79" y="194.53" width="98.83" height="88.94"/><rect class="cls-10" x="895.35" y="313.4" width="54.07" height="88.94" transform="translate(-96.88 65.53) rotate(-7.38)"/><rect class="cls-7" x="90.02" y="561.35" width="180.35" height="383.25"/><rect class="cls-9" x="270.37" y="671.18" width="127.75" height="273.54"/><rect class="cls-3" x="499.9" y="713.45" width="127.75" height="273.54" transform="translate(-318.48 192.41) rotate(-20.3)"/><rect class="cls-4" x="612.29" y="593.06" width="120.24" height="351.69"/><rect class="cls-5" x="744.55" y="719.36" width="123.24" height="225.38"/><path class="cls-8" d="M193.24,933.35v-4.42q5.58-1.44,7.47-3.19a8.74,8.74,0,0,0,2.48-5,61.14,61.14,0,0,0,.58-9.91v-77.9a64.34,64.34,0,0,0-.45-9,11.31,11.31,0,0,0-1.48-4.41,7.7,7.7,0,0,0-2.75-2.53,30.5,30.5,0,0,0-5.85-2.11v-4.42H242.5q14.33,0,23,3.07t12.92,9q4.23,6,4.24,15.44a28.17,28.17,0,0,1-10.9,23.15,56,56,0,0,1-12.52,7V869q12.24,3.7,18.55,11.4a28,28,0,0,1,6.31,18.32q0,12.26-5.45,20a30.49,30.49,0,0,1-15.27,11.21q-9.81,3.47-23.77,3.47Zm43.13-67.82q13.69,0,20.94-6.62t7.25-19.23a23.21,23.21,0,0,0-2-10.31,16.73,16.73,0,0,0-5.59-6.53,23.31,23.31,0,0,0-8.42-3.46,50.53,50.53,0,0,0-10.53-1q-3.44,0-9,.18t-8.38.36v46.65Zm-15.76,59.26q6.58.63,14.68.63,11.81,0,18.33-3a19,19,0,0,0,9.46-8.78q2.93-5.8,2.92-14.55t-3.19-14.41a19.54,19.54,0,0,0-9.86-8.46q-6.67-2.79-18.38-2.79h-14Z" transform="translate(-58.55 -55.97)"/><path class="cls-8" d="M392,917.24q-18.77,0-28.65-11.14t-9.88-33q0-15,5.19-25.38a35.06,35.06,0,0,1,14.21-15.42,41.47,41.47,0,0,1,20.57-5.05q19.32,0,29.24,11.33t9.92,32.52q0,15.09-5,25.47a34.08,34.08,0,0,1-14.07,15.5Q404.42,917.24,392,917.24Zm-21.47-46q0,18.74,5.91,28.79t16.91,10a17.56,17.56,0,0,0,10.29-3,22.09,22.09,0,0,0,6.9-8,38.91,38.91,0,0,0,3.84-11.59,78.82,78.82,0,0,0,1.17-13.78q0-13.38-2.93-22.2t-8-13a17.72,17.72,0,0,0-11.55-4.14q-10.91,0-16.73,9.55T370.5,871.22Z" transform="translate(-58.55 -55.97)"/><path class="cls-8" d="M584.53,909.29q-17.67,6.57-31.64-2.52t-23.07-33.64q-6.27-16.87-5.71-30.36t6.94-22.32a36.36,36.36,0,0,1,17.28-12.87q18.18-6.75,32.26,2.52t22.93,33.11q6.32,17,6,30.39T602.7,896Q596.26,904.94,584.53,909.29ZM545.08,865q7.83,21.09,17.59,30.32t20.14,5.4a15.63,15.63,0,0,0,8.45-6.93,25.81,25.81,0,0,0,3.18-11.36,53.46,53.46,0,0,0-1.23-14.39,112.45,112.45,0,0,0-4.65-15.92q-5.58-15-12-23.94t-12.94-11.79a16.13,16.13,0,0,0-12.6-.62q-10.29,3.81-11.78,16.6T545.08,865Z" transform="translate(-58.55 -55.97)"/><path class="cls-8" d="M718.87,890h2.46a12.38,12.38,0,0,0,4.15-.59,17.43,17.43,0,0,0,4.23-2.55,79.11,79.11,0,0,0,6.53-6.06,55.1,55.1,0,0,0,5.34-6.11,17.5,17.5,0,0,0,2.5-4.6,10.55,10.55,0,0,0,.61-3.51,5.29,5.29,0,0,0-1.42-3.93,8.31,8.31,0,0,0-4.65-1.93v-4.1h33.12v4.1a22.18,22.18,0,0,0-7.53,3.43,52.69,52.69,0,0,0-8.22,7l-17.68,18.23,22.14,31.45A43,43,0,0,0,767.4,929a15.76,15.76,0,0,0,6.8,3.47v4.1H744.69v-4.1a6.23,6.23,0,0,0,3-1,2.77,2.77,0,0,0,1-2.38,7.5,7.5,0,0,0-.42-2.47,17.86,17.86,0,0,0-1.73-3.3q-1.31-2.1-4.76-7.28l-9.15-13.38a47.75,47.75,0,0,0-3.73-4.94,6.87,6.87,0,0,0-2.34-1.67,9,9,0,0,0-3.31-.5h-4.3V915.7a54.12,54.12,0,0,0,.62,10,7.43,7.43,0,0,0,2.34,4.26,15.12,15.12,0,0,0,5.65,2.55v4.1H697v-4.1a16.25,16.25,0,0,0,5.34-2.26,6.6,6.6,0,0,0,2.15-2.8,16.28,16.28,0,0,0,.92-4.43q.27-2.81.27-7.32v-70q0-8-.11-11.21a30.37,30.37,0,0,0-.62-5.39,9.64,9.64,0,0,0-1.38-3.47,6.27,6.27,0,0,0-2.38-2,24,24,0,0,0-5.42-1.51v-4.35l18.52-.83h4.61Z" transform="translate(-58.55 -55.97)"/><path class="cls-8" d="M890.2,874.74h-8.42a22.07,22.07,0,0,0-4.55-7.13,14.83,14.83,0,0,0-6-3.66,27.37,27.37,0,0,0-8.15-1.06q-7,0-11.17,2.83a8.88,8.88,0,0,0-4.16,7.74,9.43,9.43,0,0,0,1.66,5.74,15.83,15.83,0,0,0,5.17,4.22A95.44,95.44,0,0,0,867,888.63a97.86,97.86,0,0,1,13.8,6.11,24.8,24.8,0,0,1,7.62,6.49,14.37,14.37,0,0,1,2.76,8.84,19.64,19.64,0,0,1-2.37,10,18.35,18.35,0,0,1-6.66,6.64,30.83,30.83,0,0,1-10.2,3.7A68.55,68.55,0,0,1,859,931.57a105.4,105.4,0,0,1-14.28-.94c-4.62-.63-9.11-1.44-13.5-2.45V912.4h8.59q2.37,6.95,7,10.08t12.8,3.13a34,34,0,0,0,6.17-.56,17.71,17.71,0,0,0,5.39-1.89,10.23,10.23,0,0,0,3.77-3.59,10.58,10.58,0,0,0,1.4-5.66,10.4,10.4,0,0,0-1.75-6.26,16.13,16.13,0,0,0-5.43-4.42,110.22,110.22,0,0,0-13-5.39,86,86,0,0,1-12.8-5.59,24.1,24.1,0,0,1-7.58-6.41,14.23,14.23,0,0,1-2.76-8.76,16,16,0,0,1,3.9-10.75q3.9-4.56,11.26-7a55.51,55.51,0,0,1,17.27-2.42c3.85,0,7.58.17,11.17.49s8.1,1,13.54,1.93Z" transform="translate(-58.55 -55.97)"/><rect class="cls-10" x="113.47" y="582.48" width="125.07" height="80.77"/><rect class="cls-10" x="284.13" y="688" width="102.92" height="62.53"/><rect class="cls-10" x="483.19" y="730.79" width="101.9" height="63.32" transform="translate(-289.87 176.67) rotate(-20.3)"/><rect class="cls-10" x="625.47" y="621.56" width="93.8" height="61.23"/><rect class="cls-10" x="766.17" y="728.39" width="80.77" height="59.93"/></svg>